<svg xmlns="http://www.w3.org/2000/svg" xmlns:xlink="http://www.w3.org/1999/xlink" viewBox="0 0 205.8 35.45"><defs><style>.cls-1{fill:none;}.cls-2{clip-path:url(#clip-path);}.cls-3{fill:#fff;}.cls-4{fill:#fff;}</style><clipPath id="clip-path"><rect class="cls-1" width="205.79" height="35.45"/></clipPath></defs><title>logo</title><g id="Layer_2" data-name="Layer 2"><g id="Layer_1-2" data-name="Layer 1"><g class="cls-2"><path class="cls-3" d="M.25,28.11A1.12,1.12,0,0,1,1.85,28,12.33,12.33,0,0,0,8.9,30.65a6.94,6.94,0,0,0,4.37-1.41A3.49,3.49,0,0,0,15,26.42a3.63,3.63,0,0,0-1.64-2.82,11.46,11.46,0,0,0-4.89-1.69l-.09,0a13.12,13.12,0,0,1-5.22-1.79A4.81,4.81,0,0,1,.67,15.94a5.71,5.71,0,0,1,2.49-4.51A9.91,9.91,0,0,1,8.81,9.87c3,0,5.08,1.36,6.86,2.49A1.2,1.2,0,0,1,16,14a1.13,1.13,0,0,1-1.55.33C12.75,13.16,11.06,12,8.81,12A6.92,6.92,0,0,0,4.43,13.3,3.46,3.46,0,0,0,3,15.94a2.79,2.79,0,0,0,1.32,2.3A11.59,11.59,0,0,0,9,19.84h.09a16,16,0,0,1,5.59,1.88,5.75,5.75,0,0,1,2.59,4.7,5.86,5.86,0,0,1-2.63,4.65A9.39,9.39,0,0,1,8.9,32.91,14,14,0,0,1,.39,29.61a1.06,1.06,0,0,1-.14-1.5"/><path class="cls-3" d="M25.73,19.6H43.17a8.89,8.89,0,0,0-8.65-7.47,9,9,0,0,0-8.79,7.47m-2.4,1.83A11.36,11.36,0,0,1,34.52,9.87,11.29,11.29,0,0,1,45.61,20.59v.19a1.07,1.07,0,0,1-1.13,1H25.59a9.06,9.06,0,0,0,8.93,8.84,8.66,8.66,0,0,0,7.43-4.18,1.1,1.1,0,0,1,1.5-.38,1.2,1.2,0,0,1,.38,1.6,11,11,0,0,1-9.31,5.22A11.34,11.34,0,0,1,23.33,21.44"/><path class="cls-3" d="M53.93,1.13a1.15,1.15,0,0,1,2.3,0V31.78a1.15,1.15,0,0,1-2.3,0Z"/><path class="cls-3" d="M65.64,1.13a1.15,1.15,0,0,1,2.3,0V31.78a1.15,1.15,0,0,1-2.3,0Z"/><path class="cls-4" d="M106.89,21.44a8.84,8.84,0,1,0,17.68,0,8.84,8.84,0,1,0-17.68-.38Zm-2.3-.47V1.13a1.15,1.15,0,0,1,2.3,0V14.39a11,11,0,0,1,8.84-4.51,11.32,11.32,0,0,1,11.14,11.56A11.3,11.3,0,0,1,115.72,32.9a11,11,0,0,1-8.84-4.47,12.32,12.32,0,0,1-2.3-7.47"/><path class="cls-4" d="M133.12,1.13a1.15,1.15,0,0,1,2.3,0V31.78a1.15,1.15,0,0,1-2.3,0Z"/><path class="cls-4" d="M144,19.6h17.44a8.89,8.89,0,0,0-8.65-7.47A9,9,0,0,0,144,19.6m-2.4,1.83a11.15,11.15,0,0,1,22.28-.85v.19a1.06,1.06,0,0,1-1.13,1h-18.9a9.06,9.06,0,0,0,8.93,8.84,8.66,8.66,0,0,0,7.43-4.18,1.1,1.1,0,0,1,1.5-.38,1.2,1.2,0,0,1,.38,1.6,11,11,0,0,1-9.31,5.22,11.34,11.34,0,0,1-11.19-11.47"/><path class="cls-4" d="M94,21.34a8.84,8.84,0,1,0-17.68,0A8.84,8.84,0,1,0,94,21.72Zm2.3.47V32.34a1.15,1.15,0,0,1-2.3,0V28.39a11,11,0,0,1-8.84,4.51A11.32,11.32,0,0,1,74.05,21.34,11.3,11.3,0,0,1,85.2,9.87,11,11,0,0,1,94,14.34a12.32,12.32,0,0,1,2.3,7.47"/><path class="cls-3" d="M190,14.86l13.31,13.31a15.8,15.8,0,1,0-26.62,0Z"/><path class="cls-4" d="M190,35.45a15.76,15.76,0,0,0,12.09-5.63L190,17.72l-12.1,12.1A15.77,15.77,0,0,0,190,35.45"/></g></g></g></svg>
